<svg version="1.1" viewBox="0.0 0.0 1024.4803149606299 1024.0" fill="none" stroke="none" stroke-linecap="square" stroke-miterlimit="10" xmlns:xlink="http://www.w3.org/1999/xlink" xmlns="http://www.w3.org/2000/svg">
<clipPath id="g28ceb8ac083_0_15.0">
<path d="m0 0l1024.4803 0l0 1024.0l-1024.4803 0l0 -1024.0z" clip-rule="nonzero"/>
</clipPath>
<g clip-path="url(#g28ceb8ac083_0_15.0)">
<defs>
<linearGradient id="g28ceb8ac083_0_15.1" gradientUnits="userSpaceOnUse" x1="0" y1="0" x2="1024.4803" y2="1024.0">
<stop offset="0.0" stop-color="#293d53"/>
<stop offset="1.0" stop-color="#041120"/>
</linearGradient>
</defs>
<path fill="url(#g28ceb8ac083_0_15.1)" d="m0 0l1024.4803 0l0 1024.0l-1024.4803 0z" fill-rule="evenodd"/>
<!--
<path fill="#000000" fill-opacity="0.0" d="m193.70341 0.005249344l1024.4724 0l0 1024.4724l-1024.4724 0z" fill-rule="evenodd"/>
<path fill="#000000" fill-opacity="0.0" d="m-23.992126 333.71127l960.0 0l0 120.8819l-960.0 0z" fill-rule="evenodd"/>
-->

<!-- notable -->
<!-- https://danmarshall.github.io/google-font-to-svg-path/?font-select=Notable&font-variant=regular&input-union=false&input-filled=true&input-kerning=true&input-separate=false&input-text=Z&input-bezier-accuracy=&dxf-units=cm&input-size=120&input-fill=%23000&input-stroke=%23000&input-strokeWidth=0.25mm&input-fill-rule=evenodd -->
<path fill="#091d33" transform="translate(40 80) scale(7 8)" d="M 0 84 L 45.6 6.96 L 0 6.96 L 0 0 L 94.56 0 L 49.08 77.04 L 94.56 77.04 L 94.56 84 L 0 84 Z" vector-effect="non-scaling-stroke"/>

<!-- other fonts considered... -->

<!-- marcellus -->
<!-- https://danmarshall.github.io/google-font-to-svg-path/?font-select=Marcellus&font-variant=regular&input-union=false&input-filled=true&input-kerning=true&input-separate=false&input-text=Z&input-bezier-accuracy=&dxf-units=cm&input-size=120&input-fill=%23000&input-stroke=%23000&input-strokeWidth=0.25mm&input-fill-rule=evenodd -->
<!-- <path fill="#495d73" transform="translate(50 10) scale(6 6)" d="M 73.184 2.051 L 16.055 79.336 L 41.133 79.336 A 141.104 141.104 0 0 0 48.521 79.151 A 111.427 111.427 0 0 0 53.818 78.75 Q 59.648 78.164 63.984 77.402 A 107.152 107.152 0 0 0 68.804 76.509 A 83.012 83.012 0 0 0 73.184 75.469 L 70.313 84.961 A 24.152 24.152 0 0 0 69.917 84.932 Q 69.464 84.901 68.824 84.871 A 112.855 112.855 0 0 0 68.203 84.844 A 348.684 348.684 0 0 0 66.716 84.785 A 474.637 474.637 0 0 0 65.068 84.727 A 182.958 182.958 0 0 0 63.296 84.675 A 211.397 211.397 0 0 0 61.436 84.639 A 2118.435 2118.435 0 0 1 59.583 84.609 A 1785.899 1785.899 0 0 1 57.832 84.58 Q 56.372 84.555 55.193 84.53 A 436.537 436.537 0 0 1 54.814 84.521 Q 53.6 84.495 53.007 84.492 A 27.09 27.09 0 0 0 52.91 84.492 L 0 84.492 L 0 83.027 L 57.07 5.625 L 35.039 5.625 A 135.833 135.833 0 0 0 27.604 5.82 A 105.978 105.978 0 0 0 22.295 6.24 Q 17.604 6.735 13.88 7.287 A 130.292 130.292 0 0 0 12.129 7.559 A 136.932 136.932 0 0 0 7.324 8.481 A 103.183 103.183 0 0 0 2.988 9.492 L 7.031 0 A 23.502 23.502 0 0 0 7.429 0.029 Q 8.089 0.073 9.157 0.117 A 137.372 137.372 0 0 0 9.17 0.117 A 400.841 400.841 0 0 0 10.679 0.176 A 529.143 529.143 0 0 0 12.334 0.234 A 191.727 191.727 0 0 0 15.009 0.306 A 216.232 216.232 0 0 0 15.937 0.322 A 2384.77 2384.77 0 0 1 17.769 0.352 A 2057.635 2057.635 0 0 1 19.512 0.381 Q 20.972 0.406 22.151 0.431 A 436.537 436.537 0 0 1 22.529 0.439 Q 23.743 0.466 24.336 0.469 A 27.09 27.09 0 0 0 24.434 0.469 L 73.184 0.469 L 73.184 2.051 Z" vector-effect="non-scaling-stroke"/> -->

<!-- racing sans one -->
<!-- https://danmarshall.github.io/google-font-to-svg-path/?font-select=Racing+Sans+One&font-variant=regular&input-union=false&input-filled=true&input-kerning=true&input-separate=false&input-text=Z&input-bezier-accuracy=&dxf-units=cm&input-size=120&input-fill=%23000&input-stroke=%23000&input-strokeWidth=0.25mm&input-fill-rule=evenodd -->
<!-- <path fill="#495d73" transform="translate(20 10) scale(6.8 6.8)" d="M 0 76.2 L 2.16 65.28 L 41.64 9.12 L 11.4 9.12 L 13.2 0 L 72.48 0 L 71.4 10.2 L 32.28 67.08 L 63.84 67.08 L 62.16 76.2 L 0 76.2 Z" vector-effect="non-scaling-stroke"/> -->

<!-- kumar one -->
<!-- https://danmarshall.github.io/google-font-to-svg-path/?font-select=Kumar+One&font-variant=regular&input-union=false&input-filled=true&input-kerning=true&input-separate=false&input-text=Z&input-bezier-accuracy=&dxf-units=cm&input-size=120&input-fill=%23000&input-stroke=%23000&input-strokeWidth=0.25mm&input-fill-rule=evenodd -->
<!-- <path fill="#495d73" transform="translate(20 10) scale(5.4 5.4)" d="M 0 91.56 L 3.72 96 L 82.2 96 L 82.2 68.4 L 76.8 68.4 L 76.8 91.2 L 34.32 91.2 L 83.52 4.56 L 79.68 0 L 3.36 0 L 3.36 27.6 L 8.76 27.6 L 8.76 4.8 L 49.32 4.8 L 0 91.56 Z" vector-effect="non-scaling-stroke"/> -->

<!-- krona one -->
<!-- https://danmarshall.github.io/google-font-to-svg-path/?font-select=Krona+One&font-variant=regular&input-union=false&input-filled=true&input-kerning=true&input-separate=false&input-text=Z&input-bezier-accuracy=&dxf-units=cm&input-size=120&input-fill=%23000&input-stroke=%23000&input-strokeWidth=0.25mm&input-fill-rule=evenodd -->
<!-- <path d="M 0 91.582 L 50.742 26.543 L 59.531 15.82 L 4.512 15.82 L 4.512 0 L 94.102 0 L 42.832 64.395 L 33.691 75.762 L 91.23 75.762 L 91.23 91.582 L 0 91.582 Z" vector-effect="non-scaling-stroke"/> -->

<!-- limelight -->
<!-- https://danmarshall.github.io/google-font-to-svg-path/?font-select=Limelight&font-variant=regular&input-union=false&input-filled=true&input-kerning=true&input-separate=false&input-text=Z&input-bezier-accuracy=&dxf-units=cm&input-size=120&input-fill=%23000&input-stroke=%23000&input-strokeWidth=0.25mm&input-fill-rule=evenodd -->
<!-- <path d="M 57.48 82.91 L 0 82.91 L 30.586 4.219 L 15.645 4.219 A 76.675 76.675 0 0 0 13.583 4.244 Q 10.737 4.321 9.375 4.629 Q 7.168 5.082 6.218 5.097 A 4.035 4.035 0 0 1 6.152 5.098 Q 3.299 5.098 3.118 3.042 A 3.283 3.283 0 0 1 3.105 2.754 A 2.163 2.163 0 0 1 4.408 0.755 Q 5.449 0.207 7.321 0.057 A 19.182 19.182 0 0 1 8.848 0 L 61.172 0 L 31.348 78.633 L 50.859 78.633 A 86.829 86.829 0 0 0 52.892 78.611 Q 55.631 78.546 56.953 78.293 A 7.715 7.715 0 0 0 57.012 78.281 A 29.509 29.509 0 0 1 58.213 78.065 Q 59.317 77.892 60.11 77.873 A 7.932 7.932 0 0 1 60.293 77.871 Q 63.146 77.871 63.328 79.927 A 3.283 3.283 0 0 1 63.34 80.215 A 1.757 1.757 0 0 1 62.954 81.298 Q 62.75 81.567 62.436 81.817 A 4.498 4.498 0 0 1 62.051 82.09 A 3.823 3.823 0 0 1 61.139 82.496 Q 60.176 82.797 58.683 82.879 A 21.87 21.87 0 0 1 57.48 82.91 Z" vector-effect="non-scaling-stroke"/> -->

<!-- sigmar one -->
<!-- https://danmarshall.github.io/google-font-to-svg-path/?font-select=Sigmar+One&font-variant=regular&input-union=false&input-filled=true&input-kerning=true&input-separate=false&input-text=Z&input-bezier-accuracy=&dxf-units=cm&input-size=120&input-fill=%23000&input-stroke=%23000&input-strokeWidth=0.25mm&input-fill-rule=evenodd -->
<!-- <path d="M 0 91.582 L 50.742 26.543 L 59.531 15.82 L 4.512 15.82 L 4.512 0 L 94.102 0 L 42.832 64.395 L 33.691 75.762 L 91.23 75.762 L 91.23 91.582 L 0 91.582 Z" vector-effect="non-scaling-stroke"/> -->

<!-- sigmar one -->
<!-- https://danmarshall.github.io/google-font-to-svg-path/?font-select=Sigmar+One&font-variant=regular&input-union=false&input-filled=true&input-kerning=true&input-separate=false&input-text=Z&input-bezier-accuracy=&dxf-units=cm&input-size=120&input-fill=%23000&input-stroke=%23000&input-strokeWidth=0.25mm&input-fill-rule=evenodd -->
<!-- <path d="M 0 91.582 L 50.742 26.543 L 59.531 15.82 L 4.512 15.82 L 4.512 0 L 94.102 0 L 42.832 64.395 L 33.691 75.762 L 91.23 75.762 L 91.23 91.582 L 0 91.582 Z" vector-effect="non-scaling-stroke"/> -->

<!-- Mochiy Pop P One -->
<!-- https://danmarshall.github.io/google-font-to-svg-path/?font-select=Sigmar+One&font-variant=regular&input-union=false&input-filled=true&input-kerning=true&input-separate=false&input-text=Z&input-bezier-accuracy=&dxf-units=cm&input-size=120&input-fill=%23000&input-stroke=%23000&input-strokeWidth=0.25mm&input-fill-rule=evenodd -->
<!-- <path d="M 14.88 80.64 L 5.28 80.52 A 2.857 2.857 0 0 1 3.488 79.886 A 3.927 3.927 0 0 1 3.12 79.56 Q 2.04 78.48 2.04 77.52 L 2.04 55.32 A 273.473 273.473 0 0 0 7.578 49.974 Q 11.906 45.667 15 42.12 Q 18 39.36 20.7 36.24 A 1554.617 1554.617 0 0 0 21.639 35.154 Q 23.513 32.985 24 32.4 Q 25.965 30.042 26.643 28.971 A 4.83 4.83 0 0 0 26.88 28.56 Q 27.977 27.134 28.071 26.41 A 1.008 1.008 0 0 0 28.08 26.28 Q 28.08 25.847 27.592 25.805 A 1.293 1.293 0 0 0 27.48 25.8 L 4.68 25.32 A 2.919 2.919 0 0 1 2.638 24.471 Q 2.205 24.066 1.821 23.468 A 8.371 8.371 0 0 1 1.32 22.56 Q 0.72 20.88 0.24 16.32 A 23.877 23.877 0 0 1 0.119 15.032 Q 0.037 13.863 0.012 12.301 A 92.168 92.168 0 0 1 0 10.8 Q 0 9.834 0.096 9.06 A 9.823 9.823 0 0 1 0.12 8.88 Q 0.12 7.396 0.202 6.484 A 10.392 10.392 0 0 1 0.24 6.12 A 24.231 24.231 0 0 1 0.254 5.26 Q 0.297 4.068 0.468 3.518 A 2.003 2.003 0 0 1 0.48 3.48 L 0.48 2.28 L 1.08 1.68 Q 2.04 0.72 3.48 0.72 Q 4.32 0.72 4.92 0.96 L 6.24 1.08 Q 10.56 1.08 15.12 0.72 Q 19.44 0.36 23.88 0.36 Q 35.274 0.36 40.914 0.12 A 283.43 283.43 0 0 0 40.92 0.12 L 58.32 0 Q 65.04 0 68.64 0.72 A 26.825 26.825 0 0 1 69.312 0.988 Q 70.313 1.404 70.68 1.68 Q 70.981 2.282 71.03 2.465 A 0.23 0.23 0 0 1 71.04 2.52 L 71.04 21.72 A 4.678 4.678 0 0 1 70.991 22.342 Q 70.837 23.469 70.2 25.56 Q 69.333 27.836 67.095 31.19 A 63.985 63.985 0 0 1 66.6 31.92 Q 61.341 40.047 45.727 56.387 A 560.219 560.219 0 0 1 45.6 56.52 Q 50.784 56.52 53.308 56.404 A 52.344 52.344 0 0 0 53.4 56.4 L 60.48 56.4 L 67.32 56.4 A 3.017 3.017 0 0 1 68.903 56.857 A 4.034 4.034 0 0 1 69.36 57.18 A 3.687 3.687 0 0 1 69.824 57.624 Q 70.049 57.883 70.172 58.149 A 1.538 1.538 0 0 1 70.32 58.8 L 70.32 78.12 L 70.32 78.48 A 1.573 1.573 0 0 1 69.886 79.564 A 2.517 2.517 0 0 1 69.48 79.92 A 6.372 6.372 0 0 1 68.403 80.281 Q 67.871 80.411 67.258 80.481 A 11.66 11.66 0 0 1 66.84 80.52 Q 65.412 80.877 61.977 80.88 A 67.085 67.085 0 0 1 61.92 80.88 L 40.92 80.88 Q 28.68 80.88 23.04 80.76 Q 17.64 80.76 14.88 80.64 Z" vector-effect="non-scaling-stroke"/> -->

<!-- <path fill="#293d53" d="m134.14532 381.5932l0 -27.203125l54.9375 -158.92188l-52.265625 0l0 -29.859375l96.265625 0l0 23.984375l-56.53125 162.14062l56.796875 0l0 29.859375l-99.203125 0zm180.79547 2.9375q-24.0 0 -38.0 -9.0625q-14.0 -9.078125 -19.609375 -25.203125q-5.59375 -16.140625 -5.59375 -37.46875l0 -77.59375q0 -22.40625 5.59375 -38.53125q5.609375 -16.140625 19.609375 -24.9375q14.0 -8.796875 38.0 -8.796875q23.203125 0 36.390625 7.734375q13.203125 7.734375 18.671875 21.875q5.46875 14.125 5.46875 32.78125l0 18.140625l-42.671875 0l0 -20.265625q0 -7.46875 -0.796875 -14.0q-0.796875 -6.53125 -4.40625 -10.65625q-3.59375 -4.140625 -12.390625 -4.140625q-8.796875 0 -12.796875 4.265625q-4.0 4.265625 -5.078125 11.0625q-1.0625 6.796875 -1.0625 15.0625l0 98.125q0 9.078125 1.46875 15.875q1.46875 6.796875 5.59375 10.40625q4.140625 3.59375 11.875 3.59375q8.53125 0 12.125 -4.125q3.609375 -4.140625 4.53125 -11.078125q0.9375 -6.9375 0.9375 -14.671875l0 -21.0625l42.671875 0l0 17.875q0 18.921875 -5.34375 33.46875q-5.328125 14.53125 -18.390625 22.9375q-13.0625 8.390625 -36.796875 8.390625z" fill-rule="nonzero"/> -->
<!-- <path fill="#000000" d="m134.14532 381.5932l0 -27.203125l54.9375 -158.92188l-52.265625 0l0 -29.859375l96.265625 0l0 23.984375l-56.53125 162.14062l56.796875 0l0 29.859375l-99.203125 0zm180.79547 2.9375q-24.0 0 -38.0 -9.0625q-14.0 -9.078125 -19.609375 -25.203125q-5.59375 -16.140625 -5.59375 -37.46875l0 -77.59375q0 -22.40625 5.59375 -38.53125q5.609375 -16.140625 19.609375 -24.9375q14.0 -8.796875 38.0 -8.796875q23.203125 0 36.390625 7.734375q13.203125 7.734375 18.671875 21.875q5.46875 14.125 5.46875 32.78125l0 18.140625l-42.671875 0l0 -20.265625q0 -7.46875 -0.796875 -14.0q-0.796875 -6.53125 -4.40625 -10.65625q-3.59375 -4.140625 -12.390625 -4.140625q-8.796875 0 -12.796875 4.265625q-4.0 4.265625 -5.078125 11.0625q-1.0625 6.796875 -1.0625 15.0625l0 98.125q0 9.078125 1.46875 15.875q1.46875 6.796875 5.59375 10.40625q4.140625 3.59375 11.875 3.59375q8.53125 0 12.125 -4.125q3.609375 -4.140625 4.53125 -11.078125q0.9375 -6.9375 0.9375 -14.671875l0 -21.0625l42.671875 0l0 17.875q0 18.921875 -5.34375 33.46875q-5.328125 14.53125 -18.390625 22.9375q-13.0625 8.390625 -36.796875 8.390625z" fill-rule="nonzero"/> -->

</g>
</svg>
